<svg width="24" height="27" viewBox="0 0 24 27" fill="none" xmlns="http://www.w3.org/2000/svg">
<path d="M21.3333 2.66667H20V0H17.3333V2.66667H6.66667V0H4V2.66667H2.66667C1.18667 2.66667 0.0133333 3.86667 0.0133333 5.33333L0 24C0 25.4667 1.18667 26.6667 2.66667 26.6667H21.3333C22.8 26.6667 24 25.4667 24 24V5.33333C24 3.86667 22.8 2.66667 21.3333 2.66667ZM21.3333 24H2.66667V10.6667H21.3333V24ZM8 16H5.33333V13.3333H8V16ZM13.3333 16H10.6667V13.3333H13.3333V16ZM18.6667 16H16V13.3333H18.6667V16ZM8 21.3333H5.33333V18.6667H8V21.3333ZM13.3333 21.3333H10.6667V18.6667H13.3333V21.3333ZM18.6667 21.3333H16V18.6667H18.6667V21.3333Z" fill="black"/>
</svg>
