<svg width="75" height="75" viewBox="0 0 75 75" fill="none" xmlns="http://www.w3.org/2000/svg">
<path d="M30.9531 54.6721V17.6659M34.0191 54.6949V17.8195M37.0847 54.6949V17.6886M25.6348 57.5047H43.4952M25.6348 44.6043H43.4952M25.6348 17.6659H43.5009C44.8717 17.6261 47.9148 17.7455 50.5427 19.7875C54.8599 23.132 56.6971 30.5947 52.8179 35.1451C50.2583 38.1484 45.7477 39.2462 41.4418 37.9891M74 37.5C74 57.6584 57.6584 74 37.5 74C17.3416 74 1 57.6584 1 37.5C1 17.3416 17.3416 1 37.5 1C57.6584 1 74 17.3416 74 37.5Z" stroke="#101568" stroke-width="1.5" stroke-miterlimit="10"/>
</svg>
